<svg width="220" height="138" viewBox="0 0 220 138" fill="none" xmlns="http://www.w3.org/2000/svg">
<path d="M169.898 0.321289H31.4961C28.1445 0.321289 25.4375 3.02832 25.4375 6.37989V96.2275C25.4375 99.5791 28.1445 102.286 31.4961 102.286H169.898C173.25 102.286 175.957 99.5791 175.957 96.2275V6.37989C176 3.02832 173.293 0.321289 169.898 0.321289Z" fill="#1FA45B"/>
<path d="M39.793 15.4033C41.1694 15.4033 42.2852 14.2875 42.2852 12.9111C42.2852 11.5347 41.1694 10.4189 39.793 10.4189C38.4166 10.4189 37.3008 11.5347 37.3008 12.9111C37.3008 14.2875 38.4166 15.4033 39.793 15.4033Z" fill="white"/>
<path d="M65.4883 15.4033C66.8647 15.4033 67.9805 14.2875 67.9805 12.9111C67.9805 11.5347 66.8647 10.4189 65.4883 10.4189C64.1119 10.4189 62.9961 11.5347 62.9961 12.9111C62.9961 14.2875 64.1119 15.4033 65.4883 15.4033Z" fill="white"/>
<path d="M52.6406 15.4033C54.017 15.4033 55.1328 14.2875 55.1328 12.9111C55.1328 11.5347 54.017 10.4189 52.6406 10.4189C51.2642 10.4189 50.1484 11.5347 50.1484 12.9111C50.1484 14.2875 51.2642 15.4033 52.6406 15.4033Z" fill="white"/>
<path d="M168.523 97.3877H32.9141C31.4961 97.3877 30.3359 96.2275 30.3359 94.8096V23.9111H171.145V94.8525C171.102 96.2705 169.984 97.3877 168.523 97.3877Z" fill="white"/>
<path d="M105.789 66.75H131.441V68.5977H105.789V66.75Z" fill="#1FA45B" fill-opacity="0.5"/>
<path d="M105.789 57.6406H141.281V59.4883H105.789V57.6406Z" fill="#1FA45B" fill-opacity="0.5"/>
<path d="M93.5469 80.4561H65.5312C63.9414 80.4561 62.6523 79.167 62.6523 77.5771V43.6318C62.6523 42.042 63.9414 40.7529 65.5312 40.7529H85.2109L96.3398 52.0967V77.5771C96.4258 79.21 95.0937 80.4561 93.5469 80.4561Z" fill="#A0D8B9"/>
<path d="M96.4258 52.0967H85.2109V40.8389L96.4258 52.0967Z" fill="#1FA45B"/>
<path d="M89.2031 67.6523H69.6953V69.1562H82.1133V72.25C82.1133 73.4102 83.0586 74.3984 84.2617 74.3984H85.6797C86.8398 74.3984 87.8281 73.4531 87.8281 72.25V69.1992H89.2031V67.6523Z" fill="#1FA45B" fill-opacity="0.5"/>
<path d="M84.9922 70.6172C84.6055 70.6172 84.3047 70.9609 84.3047 71.3047V74.3984H85.6797V71.3477C85.6797 70.918 85.3789 70.6172 84.9922 70.6172Z" fill="#1FA45B"/>
<path d="M75.2812 58.5869L74.1641 57.5557L72.918 58.8447L71.6289 57.5557L70.5547 58.5869L71.8438 59.9189L70.5547 61.208L71.6289 62.2822L72.918 60.9502L74.1641 62.2822L75.2812 61.208L73.9922 59.9189L75.2812 58.5869Z" fill="#1FA45B" fill-opacity="0.5"/>
<path d="M88.3867 58.5869L87.3125 57.5557L86.0234 58.8447L84.7773 57.5557L83.6602 58.5869L84.9492 59.9189L83.6602 61.208L84.7773 62.2822L86.0234 60.9502L87.3125 62.2822L88.3867 61.208L87.0977 59.9189L88.3867 58.5869Z" fill="#1FA45B" fill-opacity="0.5"/>
<path d="M208.18 37.5312H191.465L183.086 52.0117L191.465 66.4922H208.18L216.559 52.0117L208.18 37.5312Z" fill="#A0D8B9"/>
<path d="M199.844 58.1992C203.261 58.1992 206.031 55.429 206.031 52.0117C206.031 48.5945 203.261 45.8242 199.844 45.8242C196.426 45.8242 193.656 48.5945 193.656 52.0117C193.656 55.429 196.426 58.1992 199.844 58.1992Z" fill="white"/>
<path d="M109.227 113.328H137.285V115.176H109.227V113.328Z" fill="#1FA45B" fill-opacity="0.5"/>
<path d="M109.227 124.715H173.723V126.562H109.227V124.715Z" fill="#1FA45B" fill-opacity="0.5"/>
<path d="M80.7813 136.532C88.2802 136.532 94.3594 130.453 94.3594 122.954C94.3594 115.455 88.2802 109.376 80.7813 109.376C73.2823 109.376 67.2031 115.455 67.2031 122.954C67.2031 130.453 73.2823 136.532 80.7813 136.532Z" fill="#A0D8B9"/>
<path d="M86.9687 118.013L85.6367 116.724L80.7812 121.536L75.8828 116.724L74.5938 118.013L79.4922 122.825L74.5938 127.638L75.8828 128.927L80.7812 124.071L85.6367 128.927L86.9687 127.638L82.0703 122.825L86.9687 118.013Z" fill="#1FA45B"/>
<path d="M53.3672 136.533C57.2353 136.533 60.3711 133.397 60.3711 129.529C60.3711 125.661 57.2353 122.525 53.3672 122.525C49.499 122.525 46.3633 125.661 46.3633 129.529C46.3633 133.397 49.499 136.533 53.3672 136.533Z" fill="#1FA45B" fill-opacity="0.5"/>
<path d="M56.5469 127.596L55.3008 126.307L53.3672 128.24L51.3906 126.307L50.1016 127.596L52.0352 129.529L50.1016 131.42L51.3906 132.752L53.3672 130.818L55.3008 132.752L56.5469 131.42L54.6133 129.529L56.5469 127.596Z" fill="#A0D8B9"/>
<path d="M206.465 135.629C207.281 135.199 208.012 134.684 208.656 134.039C212.309 130.387 211.965 124.371 207.797 121.191L188.332 106.195C191.641 101.598 193.531 95.9688 193.531 89.8672C193.531 74.3555 180.984 61.8086 165.473 61.8086C153.613 61.8086 143.516 69.1563 139.391 79.5117H58.6953V81.3594H138.789C137.93 84.0234 137.457 86.9024 137.457 89.8672C137.457 105.379 150.004 117.926 165.516 117.926C171.059 117.926 176.301 116.336 180.598 113.5L195.723 133.137C196.539 134.211 197.57 135.027 198.688 135.586H0V137.434H220V135.586L206.465 135.629Z" fill="#1FA45B"/>
<path d="M165.473 112.038C177.694 112.038 187.602 102.131 187.602 89.9092C187.602 77.6877 177.694 67.7803 165.473 67.7803C153.251 67.7803 143.344 77.6877 143.344 89.9092C143.344 102.131 153.251 112.038 165.473 112.038Z" fill="white"/>
<path d="M178.063 83.8916L176.988 82.001C176.387 80.9697 175.055 80.626 174.066 81.1846C171.574 83.0752 168.266 81.1846 168.652 78.0908C168.652 76.9307 167.707 75.9424 166.504 75.9424H164.355C163.195 75.9424 162.207 76.8877 162.207 78.0908C162.594 81.1846 159.285 83.0752 156.793 81.1846C155.762 80.583 154.43 80.9697 153.871 82.001L152.797 83.8916C152.195 84.9229 152.582 86.2549 153.613 86.8135C156.492 88.0166 156.492 91.8408 153.613 93.0869C152.582 93.6885 152.238 95.0205 152.797 96.0088L153.871 97.8994C154.473 98.9307 155.805 99.2744 156.793 98.7158C159.285 96.8252 162.594 98.7158 162.207 101.81C162.207 102.97 163.152 103.958 164.355 103.958H166.504C167.664 103.958 168.652 103.013 168.652 101.81C168.266 98.7158 171.574 96.8252 174.066 98.7158C175.098 99.3174 176.43 98.9307 176.988 97.8994L178.063 96.0088C178.664 94.9775 178.277 93.6455 177.246 93.0869C174.367 91.8838 174.367 88.0596 177.246 86.8135C178.363 86.2119 178.664 84.9229 178.063 83.8916Z" fill="white"/>
<path d="M166.546 104.818H164.397C162.722 104.818 161.347 103.443 161.347 101.768C161.819 99.4042 159.069 97.8574 157.308 99.4042C155.89 100.264 153.913 99.748 153.14 98.2871L152.065 96.3964C151.206 94.9785 151.722 93.0019 153.183 92.2285C155.46 91.4121 155.46 88.3613 153.183 87.5878C151.722 86.7714 151.206 84.7949 152.065 83.4199L153.14 81.5292C153.956 80.0683 156.019 79.5527 157.437 80.498C159.155 81.916 161.776 80.455 161.39 78.2206C161.304 76.5019 162.722 75.041 164.44 75.0839H166.589C168.265 75.0839 169.64 76.4589 169.64 78.1347C169.167 80.498 171.917 82.0449 173.679 80.498C175.097 79.6386 177.073 80.1542 177.847 81.6152L178.921 83.5058C179.78 84.9238 179.265 86.9003 177.804 87.6738C175.526 88.4902 175.526 91.541 177.804 92.3144C179.265 93.1308 179.78 95.1074 178.921 96.4824L177.847 98.373C177.03 99.8339 175.054 100.35 173.679 99.4902C171.874 97.9433 169.21 99.4902 169.64 101.853C169.597 103.4 168.222 104.818 166.546 104.818ZM163.151 101.81C163.194 102.455 163.71 102.971 164.355 102.971H166.503C167.147 102.971 167.706 102.455 167.706 101.81C167.147 98.1152 171.573 95.5371 174.538 97.8574C175.097 98.2011 175.87 97.9433 176.171 97.3847L177.245 95.4941C177.589 94.9355 177.374 94.1621 176.815 93.8613C173.335 92.4863 173.335 87.373 176.815 85.998C177.374 85.6542 177.589 84.8808 177.245 84.3652L176.171 82.4745C175.827 81.916 175.097 81.6581 174.538 82.0019C171.616 84.3652 167.147 81.7871 167.706 78.0488C167.663 77.4042 167.147 76.8886 166.503 76.8886H164.355C163.71 76.8886 163.151 77.4042 163.151 78.0488C163.71 81.7441 159.284 84.3222 156.319 82.0019C155.761 81.6581 154.987 81.916 154.687 82.4745L153.612 84.3652C153.269 84.9238 153.483 85.6972 154.042 85.998C157.522 87.373 157.522 92.4863 154.042 93.8613C153.483 94.205 153.269 94.9785 153.612 95.4941L154.687 97.3847C155.03 97.9433 155.761 98.2011 156.319 97.8574C159.284 95.4941 163.71 98.0722 163.151 101.81Z" fill="#1FA45B"/>
<path d="M165.469 94.2051C167.842 94.2051 169.766 92.2813 169.766 89.9082C169.766 87.5351 167.842 85.6113 165.469 85.6113C163.096 85.6113 161.172 87.5351 161.172 89.9082C161.172 92.2813 163.096 94.2051 165.469 94.2051Z" fill="#A0D8B9"/>
</svg>
